<?xml version="1.0" standalone="no"?>
<!DOCTYPE svg PUBLIC "-//W3C//DTD SVG 20010904//EN"
 "http://www.w3.org/TR/2001/REC-SVG-20010904/DTD/svg10.dtd">
<svg version="1.0" xmlns="http://www.w3.org/2000/svg"
 width="654.000000pt" height="654.000000pt" viewBox="0 0 654.000000 654.000000"
 preserveAspectRatio="xMidYMid meet">

<g transform="translate(0.000000,654.000000) scale(0.100000,-0.100000)"
fill="#000000" stroke="none">
<path d="M780 4533 c0 -1820 3 -1961 36 -2148 81 -449 345 -923 732 -1313 446
-450 1003 -753 1576 -858 l139 -26 129 22 c1095 182 2125 1136 2327 2155 39
194 41 304 41 2171 l0 1814 -2490 0 -2490 0 0 -1817z m4908 -23 c2 -1104 -1
-1814 -7 -1895 -25 -324 -121 -621 -301 -929 -367 -627 -1034 -1145 -1733
-1346 -113 -32 -291 -70 -331 -70 l-26 0 0 413 0 414 112 7 c384 23 756 138
1085 334 125 74 293 197 293 214 0 7 -14 31 -31 53 l-29 39 77 22 c97 26 215
75 277 115 l48 30 -19 28 c-10 15 -54 84 -98 154 -44 69 -82 126 -85 126 -3 1
-12 -12 -21 -28 -28 -48 -109 -79 -316 -120 -241 -49 -303 -80 -303 -153 0
-50 46 -74 125 -65 44 4 44 4 22 -13 -49 -39 -217 -136 -312 -181 -234 -110
-521 -183 -750 -190 l-70 -3 -3 232 -2 232 327 0 328 0 115 93 c145 116 328
293 437 422 97 115 230 310 298 438 54 100 54 96 14 322 -76 437 -230 813
-461 1123 -96 129 -327 359 -461 459 -133 99 -326 215 -480 288 l-117 56 0
219 c0 121 2 220 5 220 3 0 57 -34 120 -75 63 -41 115 -71 115 -67 0 4 -20 68
-45 141 -24 74 -42 138 -39 142 3 5 55 47 116 94 l110 85 -144 0 -144 0 -47
123 c-41 105 -47 132 -47 195 l0 72 1198 -2 1197 -3 3 -1765z m-2370 1455 l40
-100 103 -5 104 -5 -82 -63 c-46 -35 -83 -66 -83 -70 0 -4 14 -49 31 -100 17
-51 29 -96 26 -98 -3 -3 -45 21 -94 54 l-89 60 -93 -60 c-51 -32 -95 -58 -97
-56 -2 2 9 50 25 106 l28 102 -81 62 -81 63 106 3 106 3 28 72 c46 120 55 140
59 136 2 -2 22 -49 44 -104z m-792 -459 c-31 -54 -65 -81 -233 -188 -161 -103
-182 -120 -218 -186 -42 -78 -57 -85 -40 -20 8 29 21 69 29 88 8 19 20 57 27
83 28 109 117 175 320 235 52 16 104 34 115 40 29 16 29 -3 0 -52z m228 -208
c-52 -148 -205 -277 -383 -323 -34 -9 -85 -30 -112 -47 -28 -16 -53 -27 -57
-23 -8 8 56 65 73 65 5 1 37 37 70 82 103 139 227 236 349 274 73 23 77 21 60
-28z m-405 -105 c-34 -108 -89 -180 -207 -274 -42 -34 -98 -84 -124 -112 -26
-28 -49 -49 -52 -47 -2 3 13 41 34 85 21 44 56 118 77 165 45 98 87 150 150
187 52 30 127 54 131 42 2 -5 -2 -26 -9 -46z m-402 -83 c-6 -98 -24 -147 -87
-245 -21 -33 -42 -73 -46 -90 -4 -16 -14 -40 -22 -53 -8 -12 -12 -25 -9 -28 2
-3 15 11 27 31 26 41 108 108 123 98 16 -10 2 -162 -21 -220 -11 -29 -39 -83
-63 -120 -23 -38 -64 -108 -91 -158 -52 -99 -55 -100 -34 -16 8 31 17 106 20
166 6 99 5 114 -14 150 -19 35 -20 52 -16 145 6 119 25 192 67 266 29 52 138
164 160 164 9 0 11 -22 6 -90z m1503 -91 c651 -328 1063 -818 1254 -1489 39
-138 79 -329 96 -462 l12 -87 -44 -83 c-91 -176 -250 -393 -418 -572 -71 -76
-259 -244 -357 -319 l-62 -47 -282 2 -282 3 319 98 c176 54 349 107 387 118
63 19 72 25 133 97 154 180 304 443 380 665 l37 108 -27 189 c-90 627 -230
977 -511 1269 -173 180 -342 297 -639 442 -127 62 -183 85 -195 79 -9 -5 -90
-45 -181 -89 -687 -333 -982 -758 -1115 -1606 -42 -272 -42 -284 0 -405 82
-233 244 -508 407 -688 37 -41 40 -42 425 -161 l388 -120 -286 0 -285 -1 -108
86 c-294 236 -532 509 -704 809 l-63 110 5 71 c13 176 94 511 171 711 125 323
278 558 519 798 208 207 394 340 676 482 80 40 155 73 167 73 13 0 95 -36 183
-81z m-200 -87 l0 -59 -128 -129 c-349 -354 -549 -759 -569 -1156 -4 -88 -9
-118 -19 -118 -16 0 -181 72 -247 108 -26 14 -56 40 -67 58 l-20 32 -55 -30
-55 -30 0 -327 0 -327 79 -38 79 -39 65 26 c59 24 215 66 292 80 29 5 31 3 58
-63 15 -37 50 -106 78 -152 28 -45 51 -86 52 -91 1 -4 -34 -24 -77 -44 -59
-26 -98 -37 -149 -41 l-69 -5 7 66 c8 77 13 74 -122 79 -95 4 -118 16 -174 96
-34 48 -37 50 -51 34 -50 -56 -63 -150 -30 -211 28 -53 89 -91 165 -104 l67
-11 0 -67 0 -68 54 -12 c30 -6 93 -10 147 -7 94 4 117 11 326 89 l62 23 69
-66 c38 -35 106 -91 151 -124 l81 -59 0 -137 0 -137 -27 9 c-16 5 -199 62
-408 126 -209 64 -388 120 -398 126 -25 13 -162 187 -227 288 -76 119 -162
296 -206 423 l-37 108 17 132 c52 395 123 669 236 904 138 289 338 505 645
698 81 51 379 205 398 205 4 0 7 -26 7 -58z m205 -17 c292 -143 533 -323 686
-513 230 -286 350 -619 429 -1199 l21 -152 -31 -93 c-70 -205 -208 -452 -356
-635 -64 -79 -82 -94 -122 -107 -161 -51 -771 -236 -781 -236 -8 0 -11 41 -11
133 l0 132 81 59 c45 33 113 89 152 125 l69 65 62 -23 c196 -74 231 -83 327
-88 60 -4 116 -1 148 7 l51 12 0 67 0 67 67 11 c177 31 245 186 137 318 -12
15 -18 16 -21 7 -9 -24 -68 -95 -96 -116 -21 -15 -50 -22 -130 -27 -56 -4
-103 -8 -103 -8 -1 -1 1 -30 4 -66 l5 -65 -50 0 c-54 0 -131 23 -205 61 l-46
24 52 86 c29 48 66 117 81 155 16 38 30 70 31 72 6 9 181 -33 290 -70 l121
-40 71 36 71 36 3 302 c2 167 1 317 -1 333 -3 25 -12 34 -54 54 l-50 24 -18
-22 c-10 -12 -19 -25 -21 -30 -6 -16 -291 -151 -318 -151 -4 0 -10 55 -13 123
-20 400 -218 805 -569 1161 l-128 129 0 58 0 59 27 -11 c15 -5 77 -34 138 -64z
m-1065 -22 c0 -3 -25 -39 -56 -80 -60 -80 -158 -159 -238 -193 l-48 -20 6 26
c27 107 85 198 148 230 51 26 188 54 188 37z m-763 -220 c-7 -135 -25 -202
-87 -328 -27 -55 -53 -122 -58 -150 -6 -27 -10 -43 -11 -34 0 9 -11 38 -22 64
-17 39 -21 66 -20 139 2 100 21 207 46 258 18 35 133 158 149 158 5 0 6 -45 3
-107z m403 -246 c-17 -41 -47 -93 -67 -116 -31 -37 -165 -151 -176 -151 -5 0
0 36 15 105 14 64 39 113 75 147 33 32 170 102 181 93 2 -2 -11 -37 -28 -78z
m-353 -114 c-6 -123 -26 -193 -105 -357 -43 -92 -47 -97 -53 -70 -10 46 -10
203 1 276 5 36 19 91 30 122 24 63 107 163 123 147 6 -6 8 -53 4 -118z m-323
-135 c23 -68 32 -219 17 -286 -6 -28 -26 -91 -45 -139 -18 -49 -34 -105 -34
-127 -2 -44 -10 -76 -21 -76 -3 0 -19 33 -35 73 -62 159 -54 352 21 501 28 55
63 106 73 106 4 0 15 -24 24 -52z m550 -90 c-19 -107 -82 -221 -157 -280 -76
-61 -201 -147 -206 -143 -2 3 12 31 31 62 19 32 40 83 47 115 14 67 57 136
113 179 38 31 155 98 170 99 4 0 5 -15 2 -32z m-434 -318 c33 -82 36 -191 12
-330 -12 -63 -24 -155 -27 -205 -7 -93 -13 -130 -22 -122 -2 3 -10 45 -18 94
-7 48 -25 126 -40 173 -46 148 -32 320 35 429 25 39 31 35 60 -39z m-317 -139
c43 -65 61 -144 60 -261 -1 -64 -7 -124 -16 -154 -11 -35 -14 -69 -10 -115 l6
-66 -38 45 c-117 138 -141 382 -54 553 11 20 21 37 23 37 2 0 15 -17 29 -39z
m1047 -20 c0 -5 -8 -11 -17 -14 -10 -2 -26 -8 -35 -12 -26 -11 -22 10 5 23 28
13 47 15 47 3z m2200 -6 c17 -9 30 -17 30 -20 0 -7 -60 16 -66 26 -8 13 3 11
36 -6z m-2736 -17 c12 -45 6 -117 -18 -210 -27 -108 -69 -195 -121 -253 l-35
-40 21 55 c19 49 20 67 14 167 -8 145 8 210 66 266 46 43 64 46 73 15z m536
-333 c0 -173 -2 -315 -5 -315 -4 0 -19 7 -35 15 l-30 16 0 288 0 289 28 10
c15 6 30 11 35 11 4 1 7 -141 7 -314z m68 87 c21 -3 22 0 22 71 0 57 -4 76
-15 81 -8 3 -15 17 -15 31 0 29 0 29 35 13 24 -11 25 -14 25 -115 l0 -103 25
0 c24 0 25 2 25 69 0 49 -4 72 -15 81 -17 14 -20 40 -4 40 6 0 19 -5 30 -10
17 -10 19 -22 19 -110 0 -100 0 -100 25 -100 24 0 25 2 25 67 0 48 -5 72 -17
85 -21 24 -11 32 24 21 27 -9 28 -11 31 -96 3 -79 5 -87 22 -87 18 0 20 7 20
65 0 37 -4 65 -10 65 -5 0 -10 7 -10 16 0 11 5 14 16 10 9 -3 20 -6 24 -6 5 0
11 -39 12 -87 3 -80 5 -88 23 -88 17 0 20 8 23 51 2 36 -1 54 -13 64 -15 13
-21 40 -7 40 4 0 17 -3 30 -6 20 -6 22 -12 22 -80 0 -67 2 -74 20 -74 17 0 20
7 20 49 0 28 -4 53 -10 56 -21 13 -10 32 15 27 24 -4 25 -8 25 -73 0 -67 1
-69 25 -69 22 0 25 4 25 34 0 18 -7 39 -15 46 -25 21 -18 42 13 38 26 -3 27
-5 30 -70 3 -60 5 -68 22 -68 17 0 20 7 20 45 0 25 -4 45 -10 45 -5 0 -10 8
-10 19 0 14 6 17 25 13 23 -4 25 -8 25 -63 0 -56 1 -59 25 -59 22 0 25 4 25
36 0 24 -6 41 -17 50 -23 16 -11 28 22 20 23 -6 25 -11 25 -56 0 -46 2 -50 24
-50 13 0 26 5 28 11 2 6 5 -32 6 -84 l3 -94 -113 -7 c-218 -13 -436 -55 -581
-112 -33 -13 -64 -21 -68 -18 -5 3 -8 152 -7 332 1 200 4 282 7 212 6 -110 7
-115 29 -118z m2062 -96 c0 -179 -4 -327 -9 -330 -4 -3 -46 8 -92 25 -155 56
-347 92 -562 105 l-117 7 1 128 c1 104 4 129 17 134 22 8 28 -3 14 -25 -20
-32 -15 -70 8 -70 17 0 20 7 20 49 0 35 4 51 16 55 27 10 44 7 44 -9 0 -8 -4
-15 -10 -15 -5 0 -10 -18 -10 -40 0 -33 3 -40 20 -40 18 0 20 7 20 60 0 45 4
60 14 60 8 0 21 3 30 6 21 8 21 -19 0 -36 -10 -9 -14 -26 -12 -49 2 -29 8 -37
26 -39 21 -3 22 0 22 66 0 66 1 70 25 74 21 4 25 1 25 -18 0 -13 -4 -24 -10
-24 -5 0 -10 -18 -10 -40 0 -33 3 -40 20 -40 18 0 20 7 20 65 0 59 2 67 23 74
25 10 36 -4 18 -22 -6 -6 -11 -33 -11 -59 0 -41 3 -48 20 -48 18 0 20 7 20 70
0 58 3 71 19 80 29 15 41 12 41 -10 0 -11 -4 -20 -10 -20 -6 0 -10 -27 -10
-60 0 -53 2 -60 20 -60 18 0 20 7 20 85 0 83 1 86 26 95 33 13 34 13 34 -5 0
-8 -4 -15 -10 -15 -6 0 -10 -28 -10 -65 0 -58 2 -65 20 -65 18 0 20 7 20 85 0
84 0 85 30 100 29 15 30 15 30 -5 0 -11 -4 -20 -10 -20 -6 0 -10 -32 -10 -75
0 -68 2 -75 20 -75 19 0 20 7 20 98 0 96 1 99 25 110 34 16 35 15 35 -8 0 -11
-4 -20 -10 -20 -6 0 -10 -32 -10 -75 0 -68 2 -75 20 -75 19 0 20 7 20 99 0 92
2 101 22 115 32 22 38 20 38 -14 0 -16 -4 -30 -10 -30 -6 0 -10 -32 -10 -75 0
-68 2 -75 20 -75 19 0 20 7 20 115 0 70 4 115 10 115 6 0 10 -115 10 -324z
m75 312 l25 -11 0 -288 0 -288 -30 -16 c-16 -8 -31 -15 -35 -15 -3 0 -5 142
-5 315 0 193 4 315 10 315 5 0 21 -5 35 -12z m-3092 -280 c64 -79 107 -190
106 -273 0 -22 -5 -66 -12 -98 l-12 -59 -56 84 c-82 120 -109 179 -109 234 0
49 28 154 41 154 4 0 23 -19 42 -42z m1687 11 c0 -17 -3 -18 -20 -9 -20 11
-25 22 -14 33 11 11 34 -5 34 -24z m198 5 c95 -10 57 -25 -55 -22 -92 3 -108
6 -111 20 -3 18 9 18 166 2z m320 -1 c-3 -16 -18 -18 -112 -21 -135 -3 -165
13 -40 23 49 3 98 7 109 9 42 7 46 6 43 -11z m-268 -63 c0 -6 -43 -10 -110
-10 -67 0 -110 4 -110 10 0 6 43 10 110 10 67 0 110 -4 110 -10z m270 0 c0 -6
-47 -10 -120 -10 -73 0 -120 4 -120 10 0 6 47 10 120 10 73 0 120 -4 120 -10z
m-442 -123 c3 -74 4 -77 27 -77 24 0 25 2 25 81 0 78 1 80 23 77 20 -3 22 -9
25 -80 3 -75 4 -78 27 -78 24 0 25 2 25 80 0 47 4 80 10 80 6 0 10 -38 10 -95
l0 -95 -110 0 -110 0 0 88 c0 92 4 105 30 100 12 -3 16 -20 18 -81z m250 0 c3
-74 4 -77 27 -77 24 0 25 2 25 80 0 79 0 80 25 80 25 0 25 -1 25 -80 0 -78 1
-80 25 -80 23 0 24 3 27 78 2 60 6 77 18 77 12 0 16 -18 18 -92 l3 -93 -121 0
-120 0 0 88 c0 92 4 105 30 100 12 -3 16 -20 18 -81z m-1731 -185 c61 -90 86
-160 91 -251 l5 -84 -33 23 c-88 63 -160 266 -120 341 15 27 21 24 57 -29z
m603 -136 c46 -63 84 -81 177 -85 l83 -3 -55 -45 c-43 -35 -54 -50 -49 -65 5
-18 2 -19 -43 -12 -63 9 -93 21 -121 47 -34 31 -52 70 -52 111 0 35 18 86 29
86 3 0 17 -16 31 -34z m2200 -14 c13 -49 -2 -101 -38 -137 -33 -33 -71 -50
-134 -59 -42 -6 -48 -5 -48 11 0 9 -21 39 -47 65 l-47 48 69 0 c87 0 140 23
184 79 18 22 37 39 42 36 4 -3 13 -23 19 -43z m-3173 -1 c21 -15 82 -75 133
-132 52 -57 135 -144 184 -193 l90 -89 -74 5 c-105 7 -176 42 -266 132 -84 85
-126 163 -132 248 -5 69 4 73 65 29z m187 0 c4 -5 34 -25 69 -44 98 -55 139
-102 172 -198 l14 -39 -27 0 c-58 1 -160 67 -212 138 -32 42 -56 113 -47 136
7 18 23 21 31 7z m2133 -70 c54 -11 140 -40 205 -69 165 -72 177 -75 295 -70
l104 5 -3 -71 -3 -70 -35 -9 c-19 -5 -75 -7 -125 -4 -93 4 -127 14 -365 105
-153 59 -249 76 -389 69 -131 -6 -179 -18 -391 -100 -80 -30 -173 -61 -207
-67 -63 -13 -209 -10 -231 4 -7 4 -12 33 -12 74 l0 67 127 0 128 0 115 51
c163 73 231 92 385 108 83 8 313 -5 402 -23z m-1080 -108 c-3 -2 -19 0 -37 4
l-33 9 34 28 34 29 3 -32 c2 -18 1 -35 -1 -38z m1652 6 c-44 -13 -49 -10 -49
27 l0 35 36 -28 c37 -27 37 -28 13 -34z m-2313 -107 c21 -30 52 -90 70 -134
18 -43 51 -102 74 -132 50 -69 37 -82 -18 -17 -59 70 -133 115 -241 147 -11 4
-10 8 4 24 17 18 29 18 72 -2 33 -16 53 -3 53 33 0 23 -13 47 -45 87 -25 30
-42 58 -39 64 8 13 28 -6 70 -70z m-20 -420 c44 -11 134 -30 202 -42 157 -28
226 -60 230 -107 3 -28 -1 -33 -23 -39 -47 -12 -120 2 -183 34 -35 18 -65 32
-67 32 -2 0 -32 -40 -65 -89 l-60 -90 -72 20 c-130 36 -288 107 -288 129 0 5
34 61 75 124 l75 115 49 -33 c28 -19 83 -42 127 -54z m3216 -32 c55 -86 73
-121 65 -128 -49 -39 -290 -132 -342 -132 -18 0 -37 19 -81 83 -31 45 -58 84
-60 85 -1 2 -33 -11 -69 -29 -74 -36 -165 -50 -190 -29 -24 20 -18 57 13 78
38 27 109 48 247 72 148 27 261 62 300 94 17 14 32 25 35 26 3 0 40 -54 82
-120z m-2984 -184 c128 -97 306 -199 467 -266 657 -272 1403 -180 1988 247 49
35 93 63 97 61 12 -4 170 -231 170 -243 0 -13 -161 -128 -271 -194 -290 -173
-644 -288 -995 -322 -157 -15 -434 -6 -589 20 -380 64 -732 212 -1032 433
l-81 61 50 71 c28 39 66 95 86 124 19 28 39 52 44 52 5 0 35 -20 66 -44z"/>
<path d="M4084 5704 c-17 -8 -37 -25 -43 -38 -11 -19 -21 -23 -57 -22 -62 1
-97 -35 -97 -98 0 -31 -5 -46 -14 -46 -7 0 -27 -13 -45 -28 -26 -24 -31 -36
-31 -73 0 -49 28 -112 67 -148 19 -18 23 -28 16 -42 -6 -10 -10 -27 -10 -39 0
-17 4 -20 18 -15 9 4 35 9 57 12 34 4 48 -1 90 -31 27 -20 58 -36 67 -36 14 0
18 -8 18 -36 0 -29 8 -44 40 -76 22 -22 40 -44 40 -48 0 -4 14 -25 31 -46 18
-22 40 -59 51 -82 19 -43 20 -43 34 -23 12 16 26 21 60 21 40 0 44 -2 44 -24
0 -13 9 -35 20 -49 11 -14 20 -35 20 -47 0 -26 15 -57 45 -90 12 -14 27 -45
34 -69 12 -43 13 -43 28 -21 13 19 22 22 60 17 24 -2 47 -7 50 -11 3 -3 7 -45
7 -93 1 -49 7 -98 14 -110 7 -12 12 -45 12 -73 l0 -51 28 15 c26 13 33 13 63
-2 33 -16 34 -19 33 -72 -1 -30 -7 -74 -14 -97 -10 -32 -10 -48 -1 -70 8 -20
8 -38 1 -63 -13 -44 -13 -87 -1 -95 5 -3 21 0 35 6 33 15 68 5 111 -33 34 -29
36 -34 30 -72 -4 -23 -13 -60 -22 -83 -9 -26 -13 -55 -9 -75 8 -41 8 -45 0
-86 -5 -26 -4 -31 9 -26 23 8 71 -21 109 -67 32 -38 34 -44 24 -73 -6 -18 -24
-47 -39 -65 -15 -18 -28 -38 -29 -44 0 -7 -2 -16 -3 -22 0 -5 -18 -28 -38 -49
-42 -45 -45 -56 -18 -56 10 0 30 -11 43 -25 26 -26 68 -122 68 -157 0 -17 -4
-19 -27 -12 -60 17 -92 9 -133 -32 -21 -21 -52 -49 -69 -62 -17 -13 -31 -29
-31 -35 0 -7 -25 -25 -55 -41 l-56 -29 30 -18 c34 -21 51 -68 51 -142 0 -43
-70 -271 -102 -331 -15 -28 12 -52 42 -36 12 6 28 9 37 6 32 -13 141 73 168
134 17 39 20 40 54 34 64 -13 115 -8 166 16 28 12 73 28 100 35 47 11 50 13
53 47 2 21 -3 39 -12 47 -12 10 -12 16 0 39 19 36 18 124 -2 192 -9 30 -17 68
-18 85 -1 29 1 30 59 41 72 13 87 20 156 79 30 25 64 48 76 51 31 8 33 68 3
86 -15 10 -20 24 -20 61 0 58 -15 95 -74 186 -39 60 -43 71 -30 82 8 7 34 44
56 82 23 38 50 74 60 80 35 22 16 72 -34 90 -12 4 -18 17 -18 37 0 37 -23 85
-45 94 -9 3 -30 6 -46 6 -22 0 -40 10 -65 37 l-34 36 15 60 c15 60 36 97 74
131 12 11 21 24 21 31 0 20 -40 55 -63 55 -18 0 -26 10 -40 49 -17 48 -70 107
-87 96 -37 -23 -48 137 -14 196 24 40 17 77 -15 86 -11 3 -25 19 -32 35 -17
41 -75 98 -99 98 -34 0 -78 33 -84 63 -9 45 -7 153 3 180 11 29 -7 51 -51 62
-16 4 -31 18 -38 35 -24 58 -114 120 -173 120 -20 0 -27 10 -45 63 -12 34 -22
72 -22 84 0 26 -27 43 -68 43 -16 0 -36 7 -43 16 -20 24 -111 74 -135 74 -11
0 -29 -9 -39 -20 -33 -37 -51 -26 -75 46 -21 63 -23 117 -5 157 7 16 3 17 -31
12 -38 -6 -40 -5 -59 37 -19 40 -73 88 -99 88 -6 0 -25 -7 -42 -16z m93 -50
c50 -55 36 -104 -29 -104 -31 0 -65 -28 -73 -62 -4 -13 -21 -30 -38 -38 -21
-10 -35 -26 -41 -46 -6 -21 -20 -37 -40 -45 -23 -11 -35 -25 -45 -58 l-14 -45
-28 33 c-33 40 -51 104 -39 137 11 27 39 44 75 44 26 0 27 10 9 68 -6 22 15
62 40 73 18 8 33 8 55 1 29 -10 32 -9 46 18 32 62 79 71 122 24z m301 -303
c20 -10 46 -28 56 -40 19 -21 19 -21 -5 -23 -35 -2 -45 -1 -73 6 -22 5 -25 2
-31 -34 -10 -59 -45 -84 -112 -77 l-53 6 15 -36 c21 -50 19 -60 -16 -72 -24
-8 -30 -15 -24 -28 6 -18 25 -109 25 -124 0 -18 -19 -8 -26 14 -4 12 -24 38
-45 58 -50 46 -53 88 -10 120 26 19 28 24 20 57 -12 51 -2 96 28 124 22 20 34
23 104 23 67 -1 79 2 79 15 0 35 16 37 68 11z m337 -284 c42 -24 89 -83 79
-99 -6 -10 -61 -6 -101 7 -18 6 -24 2 -36 -26 -21 -50 -40 -62 -89 -56 -24 2
-53 8 -65 12 -20 7 -21 5 -12 -32 13 -56 11 -63 -13 -63 -39 0 -45 -12 -45
-88 0 -81 -15 -113 -33 -68 -5 15 -10 38 -10 52 0 13 -9 33 -20 44 -37 37 -16
120 31 120 15 0 16 4 7 28 -31 80 62 174 154 157 26 -5 38 -2 52 14 24 27 51
26 101 -2z m199 -411 c19 -8 39 -22 45 -33 9 -16 12 -16 21 -3 9 13 17 8 50
-29 22 -24 40 -47 40 -52 0 -17 -29 -9 -57 15 l-28 24 -37 -34 c-21 -19 -45
-34 -54 -34 -20 0 -67 25 -83 44 -18 22 -28 12 -36 -35 -7 -40 -7 -40 -48 -37
-41 3 -42 3 -49 -39 -7 -44 -31 -98 -48 -108 -17 -10 -24 25 -14 65 7 23 7 47
1 64 -12 37 4 71 45 92 18 9 41 28 52 42 22 28 109 72 144 72 12 0 38 -6 56
-14z m118 -376 c20 -6 51 -25 69 -43 17 -17 41 -31 53 -32 13 0 28 -14 43 -40
12 -22 23 -43 23 -47 0 -17 -33 -6 -55 18 l-24 26 -31 -26 c-45 -37 -84 -34
-127 9 -19 19 -37 35 -39 35 -2 0 -9 -18 -15 -41 -13 -40 -14 -41 -51 -36 -38
5 -39 4 -59 -43 -25 -58 -65 -101 -74 -79 -3 8 1 33 9 55 7 22 12 53 9 67 -7
36 18 73 60 88 22 8 37 22 45 41 18 48 88 69 164 48z m180 -492 c15 -6 37 -25
48 -43 19 -30 24 -33 59 -28 32 4 41 1 55 -18 18 -27 22 -79 5 -79 -7 0 -27
16 -45 36 l-34 35 -26 -20 c-43 -34 -86 -28 -128 19 l-36 40 -17 -41 c-16 -41
-16 -41 -58 -35 -40 7 -43 5 -55 -25 -18 -41 -58 -89 -76 -89 -18 0 -18 40 0
82 8 18 18 50 21 70 8 51 48 82 96 74 26 -4 40 -1 49 9 27 32 80 37 142 13z
m111 -476 c48 -49 107 -164 107 -208 0 -55 -34 -37 -46 25 -5 24 -11 31 -23
26 -67 -27 -119 -5 -142 60 -7 19 -16 35 -19 35 -4 0 -17 -11 -30 -25 -28 -30
-37 -31 -70 -6 l-24 19 -43 -39 c-64 -59 -103 -51 -44 9 17 16 33 41 36 55 11
42 38 60 87 55 31 -3 54 2 85 18 52 27 81 22 126 -24z m-370 -481 c31 -16 44
-17 71 -9 49 15 82 3 111 -40 42 -63 69 -213 49 -266 -11 -29 -34 3 -34 45 0
37 -2 39 -30 39 -65 0 -100 37 -100 107 0 30 -3 34 -17 28 -71 -30 -74 -30
-83 -15 -27 45 -25 44 -78 22 -28 -12 -58 -22 -66 -22 -26 0 -18 19 17 39 17
11 36 24 40 29 60 70 64 71 120 43z"/>
<path d="M2560 3124 c0 -93 1 -95 23 -92 19 3 22 10 25 54 2 36 -1 54 -13 64
-8 7 -15 25 -15 41 0 16 -4 29 -10 29 -6 0 -10 -39 -10 -96z"/>
<path d="M2400 3099 c0 -109 0 -110 23 -107 20 3 22 9 25 72 2 55 0 72 -13 78
-8 5 -15 22 -15 38 0 17 -4 30 -10 30 -6 0 -10 -44 -10 -111z"/>
<path d="M2490 3115 c0 -88 1 -95 20 -95 18 0 20 7 20 65 0 37 -4 65 -10 65
-5 0 -10 14 -10 30 0 17 -4 30 -10 30 -6 0 -10 -38 -10 -95z"/>
<path d="M2640 3126 c0 -79 2 -86 20 -86 18 0 20 7 20 55 0 30 -4 55 -10 55
-5 0 -10 11 -10 24 0 14 -4 28 -10 31 -6 4 -10 -25 -10 -79z"/>
<path d="M2320 3090 l0 -110 25 0 c24 0 25 2 25 69 0 52 -4 70 -15 75 -9 3
-15 19 -15 41 0 19 -4 35 -10 35 -6 0 -10 -43 -10 -110z"/>
<path d="M2710 3125 c0 -73 1 -75 25 -75 22 0 25 4 25 39 0 25 -5 41 -15 45
-9 3 -15 18 -15 36 0 16 -4 30 -10 30 -6 0 -10 -32 -10 -75z"/>
<path d="M2790 3125 c0 -68 2 -75 20 -75 17 0 20 7 20 45 0 25 -4 45 -10 45
-5 0 -10 14 -10 30 0 17 -4 30 -10 30 -6 0 -10 -32 -10 -75z"/>
<path d="M2242 3073 c3 -114 4 -118 26 -121 21 -3 22 0 22 71 0 57 -4 76 -15
81 -9 3 -15 18 -15 40 0 19 -5 38 -10 41 -7 4 -10 -32 -8 -112z"/>
<path d="M2860 3125 c0 -63 1 -65 25 -65 22 0 25 4 25 39 0 25 -5 41 -15 45
-8 3 -15 15 -15 26 0 11 -4 20 -10 20 -6 0 -10 -28 -10 -65z"/>
<path d="M2940 3130 c0 -57 1 -60 25 -60 21 0 25 5 25 29 0 16 -6 31 -15 35
-8 3 -15 17 -15 31 0 14 -4 25 -10 25 -6 0 -10 -27 -10 -60z"/>
<path d="M3977 3213 c-4 -3 -7 -19 -7 -35 0 -15 -4 -28 -10 -28 -6 0 -10 -27
-10 -60 0 -53 2 -60 20 -60 19 0 20 7 20 95 0 95 -1 101 -13 88z"/>
<path d="M4050 3186 c0 -14 -4 -28 -10 -31 -5 -3 -10 -35 -10 -71 0 -57 2 -64
20 -64 19 0 20 7 20 95 0 57 -4 95 -10 95 -5 0 -10 -11 -10 -24z"/>
<path d="M4137 3203 c-4 -3 -7 -19 -7 -35 0 -15 -4 -28 -10 -28 -6 0 -10 -32
-10 -75 0 -68 2 -75 20 -75 19 0 20 7 20 110 0 110 -1 116 -13 103z"/>
<path d="M3750 3171 c0 -16 -6 -31 -15 -35 -10 -3 -15 -19 -15 -46 0 -36 2
-40 25 -40 24 0 25 2 25 75 0 43 -4 75 -10 75 -5 0 -10 -13 -10 -29z"/>
<path d="M3820 3165 c0 -19 -4 -35 -10 -35 -5 0 -10 -18 -10 -40 0 -33 3 -40
20 -40 18 0 20 7 20 75 0 43 -4 75 -10 75 -5 0 -10 -16 -10 -35z"/>
<path d="M3890 3176 c0 -14 -4 -28 -10 -31 -5 -3 -10 -28 -10 -56 0 -42 3 -49
20 -49 18 0 20 7 20 80 0 47 -4 80 -10 80 -5 0 -10 -11 -10 -24z"/>
<path d="M4217 3193 c-4 -3 -7 -19 -7 -34 0 -15 -4 -31 -10 -34 -5 -3 -10 -37
-10 -76 0 -62 2 -69 20 -69 19 0 20 7 20 110 0 110 -1 116 -13 103z"/>
<path d="M3597 3183 c-4 -3 -7 -17 -7 -30 0 -12 -4 -23 -10 -23 -5 0 -10 -13
-10 -30 0 -23 4 -30 20 -30 18 0 20 7 20 60 0 61 -1 65 -13 53z"/>
<path d="M3670 3165 c0 -14 -4 -25 -10 -25 -5 0 -10 -18 -10 -40 0 -33 3 -40
20 -40 18 0 20 7 20 65 0 37 -4 65 -10 65 -5 0 -10 -11 -10 -25z"/>
<path d="M4297 3183 c-4 -3 -7 -24 -7 -45 0 -21 -4 -38 -10 -38 -6 0 -10 -32
-10 -75 0 -68 2 -75 20 -75 19 0 20 7 20 120 0 66 -1 120 -3 120 -2 0 -7 -3
-10 -7z"/>
<path d="M3246 2702 c-2 -4 -1 -23 4 -42 l8 -35 1 43 c1 41 -3 50 -13 34z"/>
<path d="M3295 2680 c-9 -17 -14 -37 -11 -43 3 -9 5 -9 5 1 1 6 9 12 19 12 10
0 24 -6 31 -12 9 -9 8 0 -3 26 -22 53 -22 53 -41 16z m21 -17 c-10 -10 -19 5
-10 18 6 11 8 11 12 0 2 -7 1 -15 -2 -18z"/>
<path d="M3133 2693 c21 -5 17 -27 -5 -31 -9 -2 -18 5 -21 15 -3 10 -5 -2 -4
-27 0 -25 2 -35 4 -22 5 26 19 28 47 5 12 -10 16 -11 9 -4 -7 8 -9 26 -6 42 5
26 3 29 -18 28 -18 -1 -20 -2 -6 -6z"/>
<path d="M3181 2663 c1 -37 2 -37 9 -8 l7 30 7 -27 c5 -16 12 -28 17 -28 11 0
-16 63 -30 68 -7 2 -11 -11 -10 -35z"/>
<path d="M3391 2658 c1 -24 3 -35 6 -25 3 10 14 17 29 17 29 0 32 25 5 40 -34
18 -41 12 -40 -32z m33 26 c23 -9 20 -24 -4 -24 -11 0 -20 7 -20 15 0 17 2 18
24 9z"/>
<path d="M3040 2672 c0 -4 5 -13 12 -20 6 -6 8 -15 4 -19 -4 -4 -10 -2 -14 5
-5 7 -12 0 -20 -21 -9 -25 -9 -29 1 -16 15 19 47 32 47 19 0 -6 4 -10 10 -10
5 0 2 16 -7 35 -15 32 -33 47 -33 27z"/>
<path d="M3471 2643 c2 -35 2 -35 6 -8 3 16 10 33 16 37 8 5 6 8 -5 8 -14 0
-18 -8 -17 -37z"/>
<path d="M3516 2656 c4 -11 0 -16 -10 -16 -15 0 -15 -2 1 -24 10 -13 20 -22
22 -20 2 2 -2 10 -9 19 -8 10 -9 15 -1 15 14 0 15 27 1 35 -6 3 -7 -1 -4 -9z"/>
<path d="M2990 2645 c0 -21 -30 -31 -41 -14 -6 9 -8 -2 -7 -31 0 -27 3 -35 5
-19 5 35 40 46 46 15 2 -11 5 -2 6 22 0 23 -1 42 -4 42 -3 0 -5 -7 -5 -15z"/>
<path d="M3555 2621 c-19 -37 -19 -47 -1 -32 17 14 46 4 46 -17 0 -8 3 -13 6
-9 7 7 -5 47 -14 46 -22 -3 -31 3 -25 17 5 13 7 13 14 2 6 -9 9 -9 9 -1 0 26
-20 22 -35 -6z"/>
<path d="M2878 2623 c-13 -3 -18 -15 -18 -44 0 -41 8 -46 41 -29 13 8 19 21
19 45 0 35 -5 38 -42 28z m32 -33 c0 -16 -2 -30 -4 -30 -2 0 -11 -3 -20 -6
-12 -5 -16 1 -16 24 0 27 9 39 33 41 4 1 7 -12 7 -29z"/>
<path d="M3650 2590 c0 -29 -13 -40 -23 -20 -3 6 -4 5 -3 -2 1 -7 10 -14 19
-16 13 -3 17 4 17 32 0 20 -2 36 -5 36 -3 0 -5 -13 -5 -30z"/>
<path d="M3690 2586 c-6 -16 -12 -32 -14 -35 -2 -3 9 -6 25 -6 16 0 29 3 29 8
0 4 -9 7 -20 7 -14 0 -18 5 -13 16 5 13 7 13 14 2 5 -7 9 -8 9 -3 0 6 -4 17
-10 25 -7 11 -11 9 -20 -14z"/>
<path d="M2780 2582 c0 -4 5 -13 12 -20 6 -6 8 -15 4 -19 -4 -4 -11 -1 -15 6
-6 9 -10 5 -15 -14 -4 -15 -5 -30 -1 -33 3 -3 5 2 5 10 0 9 9 18 20 21 11 3
20 0 20 -6 0 -6 2 -8 5 -5 8 7 -16 68 -26 68 -5 0 -9 -4 -9 -8z"/>
<path d="M3751 2543 c1 -37 1 -37 8 -8 l7 30 8 -32 c9 -38 21 -42 32 -10 7 20
9 19 15 -13 l6 -35 2 43 c1 46 -10 55 -27 20 -10 -23 -10 -22 -22 10 -16 43
-30 41 -29 -5z"/>
<path d="M2735 2550 c-6 -20 -8 -21 -26 -4 -10 9 -19 12 -19 7 0 -6 7 -16 15
-23 8 -7 15 -20 15 -29 1 -9 7 2 15 24 8 21 12 41 10 43 -2 2 -6 -6 -10 -18z"/>
<path d="M2659 2537 c13 -16 5 -27 -21 -27 -20 0 -24 16 -5 23 7 3 5 6 -5 6
-15 1 -18 -7 -17 -41 0 -36 2 -39 9 -20 11 26 18 27 42 5 10 -9 18 -11 18 -5
0 6 -5 14 -10 17 -8 5 -7 11 0 20 13 15 6 35 -12 35 -7 0 -7 -4 1 -13z"/>
<path d="M3853 2515 c2 -36 5 -40 30 -43 25 -3 27 -1 25 35 -1 38 -1 38 -5 5
-6 -45 -36 -40 -45 8 l-6 35 1 -40z"/>
<path d="M2456 2524 c-20 -19 -20 -25 0 -50 14 -18 15 -18 4 5 -10 19 -9 26 4
39 12 13 18 13 30 2 9 -7 16 -8 16 -2 0 5 -7 13 -16 16 -21 8 -20 8 -38 -10z"/>
<path d="M3932 2500 c0 -25 2 -37 5 -27 6 23 20 22 35 -3 7 -11 16 -20 21 -20
4 0 0 11 -9 25 -13 20 -14 28 -4 40 7 8 8 15 2 15 -5 0 -16 -7 -23 -16 -12
-15 -14 -14 -20 7 -5 17 -7 11 -7 -21z"/>
<path d="M2537 2488 c-11 -29 -12 -37 -3 -25 16 20 37 22 55 5 8 -9 8 -2 -2
22 -21 48 -31 47 -50 -2z m29 5 c-10 -10 -19 5 -10 18 6 11 8 11 12 0 2 -7 1
-15 -2 -18z"/>
<path d="M4017 2522 c6 -4 13 -23 15 -42 l3 -35 6 43 c4 37 2 42 -16 42 -12 0
-16 -3 -8 -8z"/>
<path d="M4083 2495 c0 -22 2 -30 4 -17 2 12 2 30 0 40 -3 9 -5 -1 -4 -23z"/>
<path d="M2490 2465 c-7 -8 -8 -15 -2 -15 5 0 15 7 22 15 7 8 8 15 2 15 -5 0
-15 -7 -22 -15z"/>
<path d="M4356 1695 c-77 -40 -147 -88 -143 -99 2 -6 11 -10 20 -8 23 4 93
-114 77 -132 -22 -27 10 -28 55 -1 45 26 64 62 27 51 -13 -4 -23 1 -32 19 -7
14 -11 27 -8 30 3 3 33 -2 68 -11 59 -17 63 -17 95 0 45 25 35 41 -25 42 -28
1 -53 4 -56 7 -3 3 2 19 11 36 31 62 -22 101 -89 66z m41 -52 c4 -11 -3 -24
-23 -40 -36 -29 -48 -29 -61 0 -8 19 -6 25 16 39 34 22 60 22 68 1z"/>
<path d="M2165 1680 c-4 -6 -2 -16 3 -23 15 -17 -53 -127 -78 -127 -25 0 -35
17 -35 60 0 28 -4 36 -22 38 -14 2 -26 -4 -33 -18 -25 -47 53 -124 119 -118
31 3 41 11 74 61 24 37 44 57 57 57 41 0 21 22 -67 73 -6 4 -15 3 -18 -3z"/>
<path d="M2440 1536 c0 -8 6 -16 13 -19 9 -3 6 -21 -11 -75 -19 -58 -27 -72
-43 -72 -45 0 -8 -25 84 -58 l98 -35 29 28 c22 21 27 32 19 41 -8 10 -16 9
-38 -4 -23 -13 -37 -14 -67 -6 -35 8 -39 12 -37 38 3 35 6 38 27 30 9 -3 16
-15 16 -25 0 -33 28 -21 40 17 10 28 9 38 0 47 -10 9 -14 9 -17 0 -3 -7 -13
-13 -24 -13 -20 0 -25 24 -11 47 11 18 88 -19 95 -46 9 -36 37 -26 37 13 0 34
0 34 -101 70 -116 42 -109 40 -109 22z"/>
<path d="M3900 1495 c-60 -20 -96 -37 -98 -47 -2 -10 4 -15 15 -14 13 1 24
-16 42 -68 18 -50 21 -71 13 -74 -12 -4 -17 -32 -7 -32 11 0 190 63 196 69 4
3 9 23 12 44 5 30 3 37 -11 37 -10 0 -22 -13 -29 -30 -8 -20 -24 -36 -49 -46
-38 -16 -48 -13 -58 22 -7 24 20 42 38 24 5 -5 16 -10 24 -10 13 0 12 11 -9
67 -10 26 -37 21 -35 -5 2 -25 -35 -21 -45 5 -7 20 -4 24 31 33 28 8 45 7 64
-2 38 -16 49 1 23 33 l-22 26 -95 -32z"/>
<path d="M2860 1417 c0 -8 7 -18 15 -21 12 -4 15 -15 10 -43 -3 -21 -8 -53
-11 -70 -3 -20 -11 -33 -19 -33 -24 0 -17 -27 8 -34 41 -11 77 -7 77 9 0 8 -7
15 -15 15 -12 0 -13 10 -9 48 9 77 16 80 30 17 8 -33 16 -70 19 -82 3 -14 13
-23 24 -23 13 0 27 21 52 76 36 83 45 83 34 -2 -4 -37 -11 -54 -21 -54 -8 0
-14 -7 -14 -15 0 -10 10 -15 29 -15 16 0 43 -3 60 -6 24 -5 31 -3 31 10 0 9
-7 16 -16 16 -13 0 -15 10 -9 68 8 76 11 82 31 82 23 0 16 27 -8 34 -13 3 -39
6 -59 6 -33 0 -37 -4 -59 -51 -13 -28 -27 -52 -31 -55 -5 -2 -13 23 -20 56 -6
33 -14 62 -18 64 -3 2 -30 7 -58 11 -43 6 -53 4 -53 -8z"/>
<path d="M3426 1401 c-27 -3 -51 -12 -54 -18 -2 -7 3 -13 11 -13 18 0 23 -14
32 -92 5 -48 4 -58 -12 -67 -12 -6 -15 -13 -8 -20 12 -11 170 10 203 28 41 22
37 91 -4 91 -18 0 -18 8 1 26 19 20 19 39 -1 58 -16 17 -70 19 -168 7z m108
-27 c36 -14 4 -54 -43 -54 -16 0 -21 6 -21 24 0 31 28 44 64 30z m30 -99 c8
-21 -21 -45 -55 -45 -26 0 -29 3 -29 30 0 28 2 30 39 30 25 0 41 -5 45 -15z"/>
</g>
</svg>
